<?xml version="1.0" encoding="iso-8859-1"?>
<!-- Generator: Adobe Illustrator 28.7.5, SVG Export Plug-In . SVG Version: 9.03 Build 55973)  -->
<svg version="1.1" id="Calque_1" xmlns="http://www.w3.org/2000/svg" xmlns:xlink="http://www.w3.org/1999/xlink" x="0px" y="0px"
	 width="113.386px" height="113.386px" viewBox="0 0 113.386 113.386" enable-background="new 0 0 113.386 113.386"
	 xml:space="preserve">
<g id="Calque_1_00000122683359137945659030000013819937914377663160_">
	<polygon fill="#59B1DD" points="87.918,63.808 60.8,81.605 55.077,44.62 82.073,26.489 	"/>
	<polygon fill="#59B1DD" points="47.001,20.617 22.597,36.86 55.077,44.62 82.073,26.489 	"/>
	<polygon fill="#59B1DD" points="28.049,70.83 60.8,81.605 55.077,44.62 22.597,36.86 	"/>
	<g>
		
			<line fill="none" stroke="#4470B3" stroke-width="1.4173" stroke-miterlimit="10" x1="55.077" y1="44.62" x2="82.073" y2="26.489"/>
		<line fill="none" stroke="#4470B3" stroke-width="1.4173" stroke-miterlimit="10" x1="60.8" y1="81.605" x2="55.077" y2="44.62"/>
		
			<line fill="none" stroke="#4470B3" stroke-width="1.4173" stroke-miterlimit="10" x1="55.077" y1="44.62" x2="22.597" y2="36.86"/>
	</g>
	<polygon fill="#F21417" points="47.471,18.139 21.861,33.345 54.347,41.056 81.343,22.926 	"/>
	<polygon fill="#F21417" points="100.619,67.146 68.544,92.373 61.686,46.777 93.903,24.452 	"/>
	<polygon fill="#F21417" points="19.58,82.256 57.671,95.246 50.097,49.726 12.767,39.534 	"/>
</g>
<g id="Calque_2_00000129908463025435655250000014300118447756370565_">
	<path fill="#FFFFFF" d="M46.95,76.95c0.167,1.484,0.023,2.781-0.435,3.892c-0.457,1.111-1.164,2.004-2.121,2.681
		c-0.956,0.676-2.119,1.108-3.489,1.295c-1.369,0.187-2.882,0.099-4.539-0.264c-1.711-0.375-3.308-0.976-4.791-1.803
		c-1.484-0.827-2.799-1.81-3.947-2.947c-1.148-1.138-2.083-2.39-2.807-3.76c-0.724-1.369-1.168-2.781-1.332-4.235
		c-0.457-4.057,1.303-6.536,5.279-7.437c-1.004-0.692-1.856-1.366-2.552-2.021c-0.696-0.654-1.275-1.321-1.735-1.997
		c-0.46-0.677-0.812-1.388-1.055-2.136c-0.243-0.747-0.417-1.576-0.519-2.484c-0.164-1.453-0.053-2.706,0.331-3.759
		c0.385-1.052,0.984-1.903,1.798-2.552c0.815-0.648,1.841-1.058,3.079-1.23c1.239-0.171,2.632-0.088,4.18,0.252
		s2.993,0.877,4.333,1.614c1.341,0.737,2.514,1.63,3.519,2.676c1.006,1.048,1.832,2.211,2.479,3.489
		c0.648,1.279,1.053,2.645,1.217,4.098c0.399,3.543-0.919,5.706-3.956,6.487C44.129,69.421,46.482,72.801,46.95,76.95z
		 M37.378,70.975c-0.796-0.957-1.71-1.549-2.743-1.775c-1.004-0.22-1.821-0.008-2.451,0.637c-0.629,0.645-0.879,1.543-0.749,2.693
		c0.065,0.576,0.221,1.134,0.467,1.675c0.246,0.542,0.561,1.039,0.943,1.492c0.545,0.646,1.182,1.161,1.913,1.548
		c0.032,0.017,0.066,0.033,0.099,0.046c0.807,0.319,1.513,0.385,2.123,0.199c0.423-0.129,0.776-0.347,1.059-0.654
		s0.491-0.697,0.623-1.17c0.133-0.473,0.166-0.997,0.101-1.573C38.636,72.972,38.175,71.933,37.378,70.975z M36.445,57.435
		c-0.929-1.723-2.087-2.737-3.479-3.042c-0.95-0.208-1.71-0.013-2.277,0.586c-0.568,0.6-0.794,1.414-0.678,2.443
		c0.055,0.484,0.196,0.973,0.424,1.466s0.511,0.947,0.849,1.36c0.338,0.414,0.722,0.771,1.154,1.072
		c0.431,0.301,0.891,0.505,1.38,0.613c0.951,0.208,1.71,0.013,2.278-0.586C36.895,60.502,37.012,59.199,36.445,57.435z"/>
	<path fill="#FFFFFF" d="M76.488,58.336c-3.136-0.051-4.922-1.847-5.359-5.386c-0.179-1.451-0.104-2.874,0.228-4.269
		c0.331-1.394,0.863-2.718,1.597-3.971c0.733-1.252,1.666-2.394,2.798-3.423c1.132-1.029,2.412-1.889,3.838-2.58
		c1.426-0.691,2.761-1.097,4.006-1.219c1.244-0.122,2.338,0.038,3.281,0.478c0.943,0.441,1.724,1.129,2.343,2.063
		c0.619,0.935,1.019,2.127,1.198,3.578c0.112,0.907,0.137,1.754,0.074,2.537c-0.062,0.783-0.239,1.558-0.528,2.323
		c-0.29,0.765-0.697,1.548-1.222,2.347c-0.524,0.799-1.195,1.653-2.01,2.56c4.077-0.051,6.367,1.949,6.868,6.001
		c0.18,1.452,0.077,2.928-0.308,4.428c-0.385,1.501-1.002,2.938-1.853,4.311c-0.851,1.374-1.901,2.636-3.151,3.786
		c-1.25,1.15-2.663,2.107-4.239,2.871c-1.526,0.739-2.977,1.178-4.352,1.315s-2.607-0.011-3.694-0.446
		c-1.088-0.435-1.984-1.138-2.688-2.112c-0.704-0.973-1.147-2.201-1.33-3.683C71.473,65.702,72.973,61.866,76.488,58.336z
		 M79.281,65.157c0.071,0.575,0.226,1.077,0.465,1.506c0.238,0.43,0.531,0.761,0.878,0.993c0.347,0.233,0.741,0.362,1.182,0.389
		c0.636,0.039,1.308-0.19,2.018-0.688c0.029-0.02,0.058-0.043,0.085-0.067c0.621-0.547,1.12-1.196,1.499-1.951
		c0.266-0.529,0.456-1.086,0.569-1.67c0.113-0.583,0.135-1.163,0.064-1.738c-0.142-1.149-0.595-1.963-1.356-2.444
		c-0.762-0.48-1.606-0.496-2.531-0.048c-0.951,0.461-1.702,1.249-2.253,2.365C79.348,62.921,79.142,64.039,79.281,65.157z
		 M78.904,52.141c0.692,0.451,1.475,0.463,2.352,0.039c0.45-0.218,0.85-0.524,1.199-0.917s0.639-0.83,0.872-1.312
		c0.232-0.481,0.401-0.988,0.508-1.52c0.107-0.532,0.13-1.041,0.07-1.524c-0.127-1.028-0.537-1.767-1.229-2.218
		c-0.692-0.45-1.476-0.463-2.351-0.039c-1.283,0.622-2.172,1.878-2.674,3.77C77.51,50.267,77.928,51.507,78.904,52.141z"/>
</g>
</svg>
