<?xml version="1.0" encoding="iso-8859-1"?>
<!-- Generator: Adobe Illustrator 28.7.5, SVG Export Plug-In . SVG Version: 9.03 Build 55973)  -->
<svg version="1.1" id="Calque_1" xmlns="http://www.w3.org/2000/svg" xmlns:xlink="http://www.w3.org/1999/xlink" x="0px" y="0px"
	 width="113.386px" height="113.386px" viewBox="0 0 113.386 113.386" enable-background="new 0 0 113.386 113.386"
	 xml:space="preserve">
<polygon fill="#59B1DD" points="87.918,63.811 60.801,81.609 55.077,44.623 82.073,26.493 "/>
<polygon fill="#59B1DD" points="47.001,20.62 22.597,36.863 55.077,44.623 82.073,26.493 "/>
<polygon fill="#59B1DD" points="28.049,70.833 60.801,81.609 55.077,44.623 22.597,36.863 "/>
<g>
	
		<line fill="none" stroke="#4470B3" stroke-width="1.4173" stroke-miterlimit="10" x1="55.077" y1="44.623" x2="82.073" y2="26.493"/>
	
		<line fill="none" stroke="#4470B3" stroke-width="1.4173" stroke-miterlimit="10" x1="60.801" y1="81.609" x2="55.077" y2="44.623"/>
	
		<line fill="none" stroke="#4470B3" stroke-width="1.4173" stroke-miterlimit="10" x1="55.077" y1="44.623" x2="22.597" y2="36.863"/>
</g>
<polygon fill="#00F258" points="100.619,67.143 68.543,92.37 61.685,46.773 93.902,24.449 "/>
<polygon fill="#00F258" points="19.581,82.256 57.672,95.246 50.097,49.726 12.767,39.534 "/>
<path fill="#FFFFFF" d="M82.413,45.676l-12.632,8.666l-1.691-7.236l22.517-15.72l-4.708,42.422l-7.591,6.012L82.413,45.676z"/>
<path fill="#FFFFFF" d="M37.293,57.657L22.24,53.349l0.441-7.143l24.623,6.656L32.169,83.717l-6.759-2.665L37.293,57.657z"/>
<polygon fill="#00F258" points="47.465,18.139 21.855,33.346 54.34,41.056 81.336,22.926 "/>
</svg>
