<?xml version="1.0" encoding="iso-8859-1"?>
<!-- Generator: Adobe Illustrator 28.7.5, SVG Export Plug-In . SVG Version: 9.03 Build 55973)  -->
<svg version="1.1" id="Calque_1" xmlns="http://www.w3.org/2000/svg" xmlns:xlink="http://www.w3.org/1999/xlink" x="0px" y="0px"
	 width="113.386px" height="113.386px" viewBox="0 0 113.386 113.386" enable-background="new 0 0 113.386 113.386"
	 xml:space="preserve">
<g id="Calque_1_00000154404103202760301990000000982293854637726385_">
	<polygon fill="#59B1DD" points="87.917,63.809 60.799,81.606 55.076,44.62 82.072,26.49 	"/>
	<polygon fill="#59B1DD" points="47,20.617 22.596,36.86 55.076,44.62 82.072,26.49 	"/>
	<polygon fill="#59B1DD" points="28.048,70.831 60.799,81.606 55.076,44.62 22.596,36.86 	"/>
	<g>
		
			<line fill="none" stroke="#4470B3" stroke-width="1.4173" stroke-miterlimit="10" x1="55.076" y1="44.62" x2="82.072" y2="26.49"/>
		
			<line fill="none" stroke="#4470B3" stroke-width="1.4173" stroke-miterlimit="10" x1="60.799" y1="81.606" x2="55.076" y2="44.62"/>
		
			<line fill="none" stroke="#4470B3" stroke-width="1.4173" stroke-miterlimit="10" x1="55.076" y1="44.62" x2="22.596" y2="36.86"/>
	</g>
	<g>
		<polygon fill="#2560FF" points="47.471,18.139 21.861,33.346 54.346,41.057 81.342,22.926 		"/>
	</g>
	<g>
		<polygon fill="#2560FF" points="100.619,67.13 68.543,92.357 61.685,46.761 93.902,24.436 		"/>
	</g>
	<g>
		<polygon fill="#2560FF" points="19.579,82.257 57.671,95.247 50.096,49.727 12.766,39.535 		"/>
	</g>
</g>
<g id="Calque_2_00000056398004034742626530000007440351141283280037_">
	<g>
		<path fill="#FFFFFF" d="M82.934,77.893l3.275-19.062l-0.095,0.08c-0.323,0.785-0.614,1.34-0.875,1.665
			c-0.261,0.326-0.503,0.581-0.725,0.768c-0.874,0.735-1.756,1.159-2.646,1.273c-0.89,0.114-1.732-0.046-2.527-0.482
			c-0.795-0.434-1.52-1.117-2.174-2.048c-0.654-0.93-1.183-2.072-1.585-3.427c-0.431-1.45-0.658-2.945-0.678-4.484
			c-0.021-1.539,0.16-3.051,0.543-4.536c0.383-1.485,0.964-2.888,1.743-4.208c0.78-1.32,1.757-2.475,2.933-3.464
			c1.192-1.002,2.335-1.631,3.431-1.888c1.096-0.256,2.11-0.203,3.043,0.162s1.755,1.01,2.468,1.936
			c0.713,0.927,1.274,2.079,1.684,3.457c0.46,1.547,0.732,3.412,0.814,5.594c0.083,2.182-0.086,4.537-0.506,7.066l-2.712,17.048
			L82.934,77.893z M86.146,47.577c-0.187-0.628-0.441-1.148-0.761-1.558c-0.321-0.41-0.677-0.707-1.07-0.891
			c-0.392-0.184-0.803-0.246-1.233-0.187c-0.429,0.059-0.851,0.262-1.264,0.609c-0.413,0.348-0.762,0.792-1.048,1.335
			c-0.286,0.542-0.503,1.133-0.65,1.771c-0.148,0.639-0.221,1.296-0.218,1.974c0.003,0.678,0.098,1.331,0.285,1.959
			c0.187,0.629,0.441,1.148,0.761,1.558c0.321,0.41,0.677,0.708,1.07,0.891c0.392,0.184,0.803,0.247,1.233,0.187
			c0.43-0.059,0.85-0.262,1.264-0.609c0.413-0.347,0.763-0.792,1.048-1.335c0.286-0.542,0.503-1.132,0.65-1.771
			c0.148-0.638,0.22-1.296,0.218-1.974C86.428,48.859,86.333,48.206,86.146,47.577z"/>
	</g>
	<g>
		<path fill="#FFFFFF" d="M25.197,81.337l10.291-11.04l-0.103-0.038c-0.505,0.254-0.914,0.367-1.227,0.342
			c-0.314-0.025-0.591-0.083-0.831-0.173c-0.943-0.35-1.799-0.94-2.566-1.77s-1.412-1.814-1.934-2.955
			c-0.522-1.14-0.911-2.394-1.166-3.759c-0.256-1.365-0.343-2.76-0.263-4.183c0.086-1.524,0.355-2.87,0.806-4.039
			c0.451-1.168,1.06-2.109,1.827-2.823c0.767-0.713,1.672-1.162,2.716-1.345s2.2-0.039,3.469,0.432
			c1.286,0.478,2.419,1.184,3.4,2.118c0.98,0.935,1.799,2.017,2.456,3.246c0.657,1.23,1.138,2.556,1.443,3.979
			s0.416,2.859,0.334,4.306c-0.092,1.626-0.436,3.295-1.032,5.005c-0.596,1.711-1.452,3.293-2.567,4.746l-9.214,10.117
			L25.197,81.337z M38.854,61.969c0.037-0.66-0.014-1.308-0.153-1.943c-0.139-0.635-0.343-1.223-0.61-1.763
			s-0.587-1.009-0.958-1.406c-0.372-0.397-0.78-0.679-1.226-0.844c-0.446-0.166-0.869-0.193-1.269-0.082
			c-0.4,0.111-0.759,0.328-1.074,0.651c-0.316,0.324-0.576,0.739-0.78,1.247s-0.324,1.092-0.362,1.752
			c-0.037,0.661,0.014,1.308,0.153,1.943c0.139,0.635,0.342,1.223,0.61,1.763c0.267,0.541,0.587,1.009,0.958,1.406
			c0.372,0.397,0.78,0.679,1.226,0.844c0.446,0.166,0.869,0.193,1.269,0.082c0.4-0.11,0.758-0.327,1.074-0.652
			c0.316-0.323,0.576-0.739,0.78-1.247C38.696,63.213,38.816,62.63,38.854,61.969z"/>
	</g>
</g>
</svg>
