<?xml version="1.0" encoding="iso-8859-1"?>
<!-- Generator: Adobe Illustrator 28.7.5, SVG Export Plug-In . SVG Version: 9.03 Build 55973)  -->
<svg version="1.1" id="Calque_1" xmlns="http://www.w3.org/2000/svg" xmlns:xlink="http://www.w3.org/1999/xlink" x="0px" y="0px"
	 width="113.386px" height="113.386px" viewBox="0 0 113.386 113.386" enable-background="new 0 0 113.386 113.386"
	 xml:space="preserve">
<g id="Calque_1_00000155865135664087127580000015513108085494199227_">
	<polygon fill="#59B1DD" points="85.108,64.936 57.99,82.733 52.266,45.748 79.263,27.617 	"/>
	<polygon fill="#59B1DD" points="44.191,21.745 19.787,37.988 52.266,45.748 79.263,27.617 	"/>
	<polygon fill="#59B1DD" points="25.238,71.958 57.99,82.733 52.266,45.748 19.787,37.988 	"/>
	<g>
		
			<line fill="none" stroke="#4470B3" stroke-width="1.4173" stroke-miterlimit="10" x1="52.266" y1="45.748" x2="79.263" y2="27.617"/>
		
			<line fill="none" stroke="#4470B3" stroke-width="1.4173" stroke-miterlimit="10" x1="57.99" y1="82.733" x2="52.266" y2="45.748"/>
		
			<line fill="none" stroke="#4470B3" stroke-width="1.4173" stroke-miterlimit="10" x1="52.266" y1="45.748" x2="19.787" y2="37.988"/>
	</g>
	<polygon fill="#F21417" points="44.661,19.267 19.051,34.473 51.537,42.184 78.533,24.054 	"/>
	<polygon fill="#F21417" points="21.3,73.204 54.226,85.941 48.507,47.914 16.147,40.635 	"/>
	<polygon fill="#F21417" points="97.238,68.891 65.163,94.118 58.305,48.522 90.522,26.197 	"/>
</g>
<g id="Calque_2_00000103971415247930460680000015351368237888462257_">
	<path fill="#FFFFFF" d="M74.308,60.462c-3.136-0.051-4.922-1.847-5.359-5.386c-0.179-1.451-0.104-2.874,0.228-4.269
		c0.331-1.394,0.863-2.718,1.597-3.971c0.733-1.252,1.666-2.394,2.798-3.423c1.132-1.029,2.412-1.889,3.838-2.58
		c1.426-0.691,2.761-1.097,4.006-1.219c1.244-0.122,2.338,0.038,3.281,0.478c0.943,0.441,1.724,1.129,2.343,2.063
		c0.619,0.935,1.019,2.127,1.198,3.578c0.112,0.907,0.137,1.754,0.074,2.537c-0.062,0.783-0.239,1.558-0.528,2.323
		c-0.29,0.765-0.697,1.548-1.222,2.347c-0.524,0.799-1.195,1.653-2.01,2.56c4.077-0.051,6.367,1.949,6.868,6.001
		c0.18,1.452,0.077,2.928-0.308,4.428c-0.385,1.501-1.002,2.938-1.853,4.311c-0.851,1.374-1.901,2.636-3.151,3.786
		c-1.25,1.15-2.663,2.107-4.239,2.871c-1.526,0.739-2.977,1.178-4.352,1.315s-2.607-0.011-3.694-0.446
		c-1.088-0.435-1.984-1.138-2.688-2.112c-0.704-0.973-1.147-2.201-1.33-3.683C69.293,67.828,70.793,63.992,74.308,60.462z
		 M77.101,67.283c0.071,0.575,0.226,1.077,0.465,1.506c0.238,0.43,0.531,0.761,0.878,0.993c0.347,0.233,0.741,0.362,1.182,0.389
		c0.636,0.039,1.308-0.19,2.018-0.688c0.029-0.02,0.058-0.043,0.085-0.067c0.621-0.547,1.12-1.196,1.499-1.951
		c0.266-0.529,0.456-1.086,0.569-1.67c0.113-0.583,0.135-1.163,0.064-1.738c-0.142-1.149-0.595-1.963-1.356-2.444
		c-0.762-0.48-1.606-0.496-2.531-0.048c-0.951,0.461-1.702,1.249-2.253,2.365C77.168,65.047,76.962,66.165,77.101,67.283z
		 M76.724,54.267c0.692,0.451,1.475,0.463,2.352,0.039c0.45-0.218,0.85-0.524,1.199-0.917s0.639-0.83,0.872-1.312
		c0.232-0.481,0.401-0.988,0.508-1.52s0.13-1.041,0.07-1.524c-0.127-1.028-0.537-1.767-1.229-2.218
		c-0.692-0.45-1.476-0.463-2.351-0.039c-1.283,0.622-2.172,1.878-2.674,3.77C75.33,52.393,75.748,53.633,76.724,54.267z"/>
</g>
</svg>
