<?xml version="1.0" encoding="iso-8859-1"?>
<!-- Generator: Adobe Illustrator 28.7.5, SVG Export Plug-In . SVG Version: 9.03 Build 55973)  -->
<svg version="1.1" id="Calque_1" xmlns="http://www.w3.org/2000/svg" xmlns:xlink="http://www.w3.org/1999/xlink" x="0px" y="0px"
	 width="113.386px" height="113.386px" viewBox="0 0 113.386 113.386" enable-background="new 0 0 113.386 113.386"
	 xml:space="preserve">
<g id="Calque_1_00000121978827344735641870000005136571455337598091_">
	<polygon fill="#59B1DD" points="85.107,64.935 57.989,82.732 52.266,45.746 79.262,27.616 	"/>
	<polygon fill="#59B1DD" points="44.19,21.743 19.786,37.986 52.266,45.746 79.262,27.616 	"/>
	<polygon fill="#59B1DD" points="25.238,71.957 57.989,82.732 52.266,45.746 19.786,37.986 	"/>
	<g>
		
			<line fill="none" stroke="#4470B3" stroke-width="1.4173" stroke-miterlimit="10" x1="52.266" y1="45.746" x2="79.262" y2="27.616"/>
		
			<line fill="none" stroke="#4470B3" stroke-width="1.4173" stroke-miterlimit="10" x1="57.989" y1="82.732" x2="52.266" y2="45.746"/>
		
			<line fill="none" stroke="#4470B3" stroke-width="1.4173" stroke-miterlimit="10" x1="52.266" y1="45.746" x2="19.786" y2="37.986"/>
	</g>
	<g>
		<polygon fill="#2560FF" points="44.66,19.265 19.05,34.472 51.536,42.183 78.532,24.052 		"/>
	</g>
	<g>
		<polygon fill="#2560FF" points="21.3,73.203 54.226,85.941 48.507,47.913 16.146,40.635 		"/>
	</g>
	<g>
		<polygon fill="#2560FF" points="97.239,68.893 65.164,94.12 58.306,48.524 90.523,26.199 		"/>
	</g>
</g>
<g id="Calque_2_00000108994227777914561470000016641562771848282295_">
	<g>
		<path fill="#FFFFFF" d="M79.554,79.553l3.275-19.062l-0.095,0.08c-0.323,0.785-0.614,1.34-0.875,1.665
			c-0.261,0.326-0.503,0.581-0.725,0.768c-0.874,0.735-1.756,1.159-2.646,1.273c-0.89,0.114-1.732-0.046-2.527-0.482
			c-0.795-0.434-1.52-1.117-2.174-2.048c-0.654-0.93-1.183-2.072-1.585-3.427c-0.431-1.45-0.658-2.945-0.678-4.484
			c-0.021-1.539,0.16-3.051,0.543-4.536c0.383-1.485,0.964-2.888,1.743-4.208c0.78-1.32,1.757-2.475,2.933-3.464
			c1.192-1.002,2.335-1.631,3.431-1.888c1.096-0.256,2.11-0.203,3.043,0.161c0.933,0.365,1.755,1.01,2.468,1.936
			c0.713,0.927,1.274,2.079,1.684,3.457c0.46,1.547,0.732,3.412,0.814,5.594c0.083,2.182-0.086,4.537-0.506,7.066l-2.712,17.048
			L79.554,79.553z M82.766,49.237c-0.187-0.628-0.441-1.148-0.761-1.558c-0.321-0.41-0.677-0.707-1.07-0.891
			c-0.392-0.184-0.803-0.246-1.233-0.187c-0.429,0.059-0.851,0.262-1.264,0.609c-0.413,0.348-0.762,0.792-1.048,1.335
			c-0.286,0.542-0.503,1.133-0.65,1.771c-0.148,0.639-0.221,1.296-0.218,1.974c0.003,0.678,0.098,1.331,0.285,1.959
			c0.187,0.629,0.441,1.148,0.761,1.558c0.321,0.41,0.677,0.708,1.07,0.891c0.392,0.184,0.803,0.247,1.233,0.187
			c0.43-0.059,0.85-0.262,1.264-0.609c0.413-0.347,0.763-0.792,1.048-1.335c0.286-0.542,0.503-1.132,0.65-1.771
			c0.148-0.638,0.22-1.296,0.218-1.974C83.048,50.519,82.953,49.866,82.766,49.237z"/>
	</g>
</g>
</svg>
