<?xml version="1.0" encoding="iso-8859-1"?>
<!-- Generator: Adobe Illustrator 28.7.5, SVG Export Plug-In . SVG Version: 9.03 Build 55973)  -->
<svg version="1.1" id="Calque_1" xmlns="http://www.w3.org/2000/svg" xmlns:xlink="http://www.w3.org/1999/xlink" x="0px" y="0px"
	 width="113.386px" height="113.386px" viewBox="0 0 113.386 113.386" enable-background="new 0 0 113.386 113.386"
	 xml:space="preserve">
<polygon fill="#59B1DD" points="85.108,64.936 57.99,82.733 52.267,45.747 79.263,27.617 "/>
<polygon fill="#59B1DD" points="44.191,21.744 19.787,37.988 52.267,45.747 79.263,27.617 "/>
<polygon fill="#59B1DD" points="25.239,71.958 57.99,82.733 52.267,45.747 19.787,37.988 "/>
<g>
	
		<line fill="none" stroke="#4470B3" stroke-width="1.4173" stroke-miterlimit="10" x1="52.267" y1="45.747" x2="79.263" y2="27.617"/>
	
		<line fill="none" stroke="#4470B3" stroke-width="1.4173" stroke-miterlimit="10" x1="57.99" y1="82.733" x2="52.267" y2="45.747"/>
	
		<line fill="none" stroke="#4470B3" stroke-width="1.4173" stroke-miterlimit="10" x1="52.267" y1="45.747" x2="19.787" y2="37.988"/>
</g>
<polygon fill="#00F258" points="44.662,19.267 19.052,34.473 51.537,42.184 78.533,24.053 "/>
<polygon fill="#00F258" points="21.301,73.205 54.227,85.943 48.508,47.916 16.147,40.637 "/>
<polygon fill="#00F258" points="97.239,68.89 65.163,94.118 58.305,48.521 90.522,26.197 "/>
<path fill="#FFFFFF" d="M79.033,47.423l-12.72,8.754l-1.691-7.236l22.606-15.808L82.52,75.555l-7.591,6.012L79.033,47.423z"/>
</svg>
