<?xml version="1.0" encoding="iso-8859-1"?>
<!-- Generator: Adobe Illustrator 28.7.5, SVG Export Plug-In . SVG Version: 9.03 Build 55973)  -->
<svg version="1.1" id="Calque_1" xmlns="http://www.w3.org/2000/svg" xmlns:xlink="http://www.w3.org/1999/xlink" x="0px" y="0px"
	 width="113.386px" height="113.386px" viewBox="0 0 113.386 113.386" enable-background="new 0 0 113.386 113.386"
	 xml:space="preserve">
<g id="Calque_1_00000003804988682688213350000002393466632059320198_">
	<polygon fill="#59B1DD" points="87.917,67.458 60.799,85.255 55.076,48.27 82.072,30.139 	"/>
	<polygon fill="#59B1DD" points="47,24.267 22.596,40.51 55.076,48.27 82.072,30.139 	"/>
	<polygon fill="#59B1DD" points="28.048,74.48 60.799,85.255 55.076,48.27 22.596,40.51 	"/>
	<g>
		
			<line fill="none" stroke="#4470B3" stroke-width="1.4173" stroke-miterlimit="10" x1="55.076" y1="48.27" x2="82.072" y2="30.139"/>
		
			<line fill="none" stroke="#4470B3" stroke-width="1.4173" stroke-miterlimit="10" x1="60.799" y1="85.255" x2="55.076" y2="48.27"/>
		
			<line fill="none" stroke="#4470B3" stroke-width="1.4173" stroke-miterlimit="10" x1="55.076" y1="48.27" x2="22.596" y2="40.51"/>
	</g>
	<g>
		<polygon fill="#2560FF" points="100.619,70.771 68.543,95.998 61.685,50.402 93.902,28.077 		"/>
	</g>
	<g>
		<polygon fill="#2560FF" points="19.579,85.904 57.671,98.893 50.096,53.373 12.766,43.181 		"/>
	</g>
	<g>
		<polygon fill="#2560FF" points="45.56,14.492 13.308,33.643 54.219,43.353 88.217,20.52 		"/>
	</g>
</g>
<g id="Calque_2_00000108272420752107728350000000894674792690908327_">
	<g>
		<path fill="#FFFFFF" d="M33.705,35.771l15.52-5.07l-0.103-0.037c-0.77,0.077-1.339,0.085-1.706,0.025
			c-0.368-0.06-0.671-0.134-0.91-0.22c-0.939-0.341-1.625-0.809-2.058-1.406c-0.433-0.597-0.622-1.267-0.566-2.011
			c0.055-0.744,0.341-1.535,0.859-2.373c0.517-0.838,1.257-1.669,2.22-2.492c1.031-0.882,2.176-1.633,3.438-2.255
			c1.26-0.621,2.576-1.086,3.946-1.395c1.369-0.309,2.747-0.443,4.133-0.401c1.385,0.042,2.709,0.292,3.973,0.75
			c1.28,0.464,2.234,1.041,2.864,1.73c0.629,0.689,0.971,1.441,1.027,2.257c0.055,0.816-0.163,1.663-0.655,2.541
			c-0.493,0.879-1.228,1.737-2.207,2.575c-1.1,0.941-2.533,1.871-4.3,2.79s-3.772,1.725-6.017,2.418L40.318,37.08L33.705,35.771z
			 M58.459,26.232c0.447-0.382,0.778-0.77,0.994-1.162c0.216-0.393,0.325-0.767,0.327-1.122c0.002-0.355-0.103-0.676-0.316-0.962
			c-0.212-0.286-0.54-0.51-0.984-0.671c-0.444-0.161-0.944-0.237-1.5-0.23c-0.556,0.008-1.125,0.084-1.708,0.229
			s-1.152,0.351-1.71,0.62c-0.557,0.269-1.06,0.595-1.506,0.977c-0.447,0.382-0.778,0.77-0.994,1.162
			c-0.216,0.393-0.325,0.767-0.327,1.122c-0.002,0.355,0.103,0.676,0.316,0.962c0.212,0.286,0.54,0.51,0.984,0.671
			c0.444,0.161,0.944,0.238,1.5,0.23s1.125-0.084,1.708-0.229c0.582-0.145,1.152-0.351,1.71-0.62
			C57.51,26.939,58.012,26.614,58.459,26.232z"/>
	</g>
	<g>
		<path fill="#FFFFFF" d="M82.934,81.715l3.275-19.062l-0.095,0.08c-0.323,0.785-0.614,1.34-0.875,1.665
			c-0.261,0.326-0.503,0.581-0.725,0.768c-0.874,0.735-1.756,1.159-2.646,1.273c-0.89,0.114-1.732-0.046-2.527-0.482
			c-0.795-0.434-1.52-1.117-2.174-2.048c-0.654-0.93-1.183-2.072-1.585-3.427c-0.431-1.45-0.658-2.945-0.678-4.484
			c-0.021-1.538,0.16-3.051,0.543-4.536c0.383-1.484,0.964-2.888,1.743-4.208c0.78-1.32,1.757-2.475,2.933-3.464
			c1.192-1.002,2.335-1.631,3.431-1.888c1.096-0.256,2.11-0.203,3.043,0.161c0.933,0.365,1.755,1.01,2.468,1.936
			c0.713,0.927,1.274,2.079,1.684,3.457c0.46,1.547,0.732,3.412,0.814,5.594c0.083,2.182-0.086,4.537-0.506,7.066l-2.712,17.048
			L82.934,81.715z M86.146,51.4c-0.187-0.628-0.441-1.148-0.761-1.558c-0.321-0.41-0.677-0.707-1.07-0.891
			c-0.392-0.184-0.803-0.246-1.233-0.187c-0.429,0.059-0.851,0.262-1.264,0.609c-0.413,0.348-0.762,0.792-1.048,1.335
			c-0.286,0.542-0.503,1.133-0.65,1.771c-0.148,0.639-0.221,1.296-0.218,1.974c0.003,0.678,0.098,1.331,0.285,1.959
			c0.187,0.629,0.441,1.148,0.761,1.558c0.321,0.41,0.677,0.708,1.07,0.891c0.392,0.184,0.803,0.247,1.233,0.187
			c0.43-0.059,0.85-0.262,1.264-0.609c0.413-0.347,0.763-0.792,1.048-1.335c0.286-0.542,0.503-1.132,0.65-1.771
			c0.148-0.638,0.22-1.296,0.218-1.974C86.428,52.681,86.333,52.028,86.146,51.4z"/>
	</g>
	<g>
		<path fill="#FFFFFF" d="M25.197,85.159l10.291-11.04l-0.103-0.038c-0.505,0.254-0.914,0.367-1.227,0.342
			c-0.314-0.025-0.591-0.083-0.831-0.172c-0.943-0.35-1.799-0.94-2.566-1.77s-1.412-1.814-1.934-2.955
			c-0.522-1.14-0.911-2.394-1.166-3.759c-0.256-1.365-0.343-2.76-0.263-4.183c0.086-1.524,0.355-2.87,0.806-4.039
			c0.451-1.168,1.06-2.109,1.827-2.823c0.767-0.713,1.672-1.162,2.716-1.345s2.2-0.039,3.469,0.432
			c1.286,0.478,2.419,1.184,3.4,2.119c0.98,0.935,1.799,2.017,2.456,3.246c0.657,1.23,1.138,2.556,1.443,3.979
			c0.305,1.423,0.416,2.859,0.334,4.306c-0.092,1.626-0.436,3.295-1.032,5.005c-0.596,1.711-1.452,3.293-2.567,4.746l-9.214,10.117
			L25.197,85.159z M38.854,65.791c0.037-0.66-0.014-1.308-0.153-1.943c-0.139-0.635-0.343-1.223-0.61-1.763
			s-0.587-1.009-0.958-1.406c-0.372-0.397-0.78-0.679-1.226-0.844c-0.446-0.166-0.869-0.193-1.269-0.082
			c-0.4,0.111-0.759,0.328-1.074,0.651c-0.316,0.324-0.576,0.739-0.78,1.247s-0.324,1.092-0.362,1.752
			c-0.037,0.661,0.014,1.308,0.153,1.943s0.342,1.223,0.61,1.763c0.267,0.541,0.587,1.009,0.958,1.406
			c0.372,0.397,0.78,0.679,1.226,0.844c0.446,0.166,0.869,0.193,1.269,0.082c0.4-0.11,0.758-0.327,1.074-0.652
			c0.316-0.323,0.576-0.739,0.78-1.247C38.696,67.036,38.816,66.452,38.854,65.791z"/>
	</g>
</g>
</svg>
