<?xml version="1.0" encoding="iso-8859-1"?>
<!-- Generator: Adobe Illustrator 28.7.5, SVG Export Plug-In . SVG Version: 9.03 Build 55973)  -->
<svg version="1.1" id="Calque_1" xmlns="http://www.w3.org/2000/svg" xmlns:xlink="http://www.w3.org/1999/xlink" x="0px" y="0px"
	 width="113.386px" height="113.386px" viewBox="0 0 113.386 113.386" enable-background="new 0 0 113.386 113.386"
	 xml:space="preserve">
<polygon fill="#59B1DD" points="87.918,67.464 60.801,85.261 55.077,48.276 82.073,30.146 "/>
<polygon fill="#59B1DD" points="47.001,24.273 22.597,40.516 55.077,48.276 82.073,30.146 "/>
<polygon fill="#59B1DD" points="28.049,74.486 60.801,85.261 55.077,48.276 22.597,40.516 "/>
<g>
	
		<line fill="none" stroke="#4470B3" stroke-width="1.4173" stroke-miterlimit="10" x1="55.077" y1="48.276" x2="82.073" y2="30.146"/>
	
		<line fill="none" stroke="#4470B3" stroke-width="1.4173" stroke-miterlimit="10" x1="60.801" y1="85.261" x2="55.077" y2="48.276"/>
	
		<line fill="none" stroke="#4470B3" stroke-width="1.4173" stroke-miterlimit="10" x1="55.077" y1="48.276" x2="22.597" y2="40.516"/>
</g>
<polygon fill="#00F258" points="100.619,70.796 68.543,96.023 61.685,50.427 93.902,28.102 "/>
<polygon fill="#00F258" points="19.581,85.909 57.672,98.899 50.097,53.378 12.767,43.186 "/>
<path fill="#FFFFFF" d="M82.413,49.328L69.87,57.994l-1.691-7.236l22.428-15.72L85.899,77.46l-7.591,6.012L82.413,49.328z"/>
<path fill="#FFFFFF" d="M37.293,61.31L22.24,57.002l0.441-7.143l24.623,6.656L32.17,87.37l-6.759-2.665L37.293,61.31z"/>
<polygon fill="#00F258" points="45.556,14.486 13.287,33.647 54.219,43.362 88.234,20.518 "/>
<path fill="#FFFFFF" d="M58.021,23.601l-14.762-2.066l5.578-3.776l27.642,4.074L39.412,36.287l-9.989-2.086L58.021,23.601z"/>
</svg>
