<?xml version="1.0" encoding="iso-8859-1"?>
<!-- Generator: Adobe Illustrator 28.7.5, SVG Export Plug-In . SVG Version: 9.03 Build 55973)  -->
<svg version="1.1" id="Calque_1" xmlns="http://www.w3.org/2000/svg" xmlns:xlink="http://www.w3.org/1999/xlink" x="0px" y="0px"
	 width="113.386px" height="113.386px" viewBox="0 0 113.386 113.386" enable-background="new 0 0 113.386 113.386"
	 xml:space="preserve">
<g id="Calque_1_00000063615633295195589890000007310258621154702256_">
	<polygon fill="#59B1DD" points="87.906,67.448 60.788,85.245 55.065,48.26 82.061,30.13 	"/>
	<polygon fill="#59B1DD" points="46.989,24.257 22.585,40.5 55.065,48.26 82.061,30.13 	"/>
	<polygon fill="#59B1DD" points="28.037,74.47 60.788,85.245 55.065,48.26 22.585,40.5 	"/>
	<g>
		
			<line fill="none" stroke="#4470B3" stroke-width="1.4173" stroke-miterlimit="10" x1="55.065" y1="48.26" x2="82.061" y2="30.13"/>
		
			<line fill="none" stroke="#4470B3" stroke-width="1.4173" stroke-miterlimit="10" x1="60.788" y1="85.245" x2="55.065" y2="48.26"/>
		<line fill="none" stroke="#4470B3" stroke-width="1.4173" stroke-miterlimit="10" x1="55.065" y1="48.26" x2="22.585" y2="40.5"/>
	</g>
	<polygon fill="#F21417" points="100.63,70.761 68.554,95.989 61.696,50.392 93.913,28.068 	"/>
	<polygon fill="#F21417" points="19.568,85.894 57.659,98.884 50.085,53.364 12.755,43.171 	"/>
	<polygon fill="#F21417" points="45.627,14.502 13.407,33.634 54.277,43.334 88.241,20.525 	"/>
</g>
<g id="Calque_2_00000135658827612182694880000017752683231585789599_">
	<path fill="#FFFFFF" d="M46.938,80.794c0.167,1.484,0.023,2.781-0.435,3.892c-0.457,1.111-1.164,2.004-2.121,2.681
		c-0.956,0.676-2.119,1.108-3.489,1.295c-1.369,0.187-2.882,0.099-4.539-0.264c-1.711-0.375-3.308-0.976-4.791-1.803
		c-1.484-0.827-2.799-1.81-3.947-2.947s-2.083-2.39-2.807-3.76c-0.724-1.369-1.168-2.781-1.332-4.235
		c-0.457-4.057,1.303-6.536,5.279-7.437c-1.004-0.692-1.856-1.366-2.552-2.021c-0.696-0.654-1.275-1.321-1.735-1.997
		c-0.46-0.677-0.812-1.388-1.055-2.136c-0.243-0.747-0.417-1.576-0.519-2.484c-0.164-1.453-0.053-2.706,0.331-3.759
		c0.385-1.052,0.984-1.903,1.798-2.552c0.815-0.648,1.841-1.058,3.079-1.23c1.239-0.171,2.632-0.088,4.18,0.252
		s2.993,0.877,4.333,1.614c1.341,0.737,2.514,1.63,3.519,2.676c1.006,1.048,1.832,2.211,2.479,3.489
		c0.648,1.279,1.053,2.645,1.217,4.098c0.399,3.543-0.919,5.706-3.956,6.487C44.117,73.265,46.47,76.646,46.938,80.794z
		 M37.366,74.82c-0.796-0.957-1.71-1.549-2.743-1.775c-1.004-0.22-1.821-0.008-2.451,0.637c-0.629,0.645-0.879,1.543-0.749,2.693
		c0.065,0.576,0.221,1.134,0.467,1.675c0.246,0.542,0.561,1.039,0.943,1.492c0.545,0.646,1.182,1.161,1.913,1.548
		c0.032,0.017,0.066,0.033,0.099,0.046c0.807,0.319,1.513,0.385,2.123,0.199c0.423-0.129,0.776-0.346,1.059-0.654
		c0.283-0.307,0.491-0.697,0.623-1.17c0.133-0.473,0.166-0.997,0.101-1.573C38.624,76.816,38.163,75.777,37.366,74.82z
		 M36.433,61.279c-0.929-1.723-2.087-2.737-3.479-3.042c-0.95-0.208-1.71-0.013-2.277,0.586c-0.568,0.6-0.794,1.414-0.678,2.443
		c0.055,0.484,0.196,0.973,0.424,1.466s0.511,0.947,0.849,1.36c0.338,0.414,0.722,0.771,1.154,1.072
		c0.431,0.301,0.891,0.505,1.38,0.613c0.951,0.208,1.71,0.013,2.278-0.586C36.883,64.346,37,63.044,36.433,61.279z"/>
	<path fill="#FFFFFF" d="M76.476,62.181c-3.136-0.051-4.922-1.847-5.359-5.386c-0.179-1.451-0.104-2.874,0.228-4.269
		c0.331-1.394,0.863-2.718,1.597-3.971c0.733-1.252,1.666-2.394,2.798-3.423c1.132-1.029,2.412-1.889,3.838-2.58
		c1.426-0.691,2.761-1.097,4.006-1.219c1.244-0.122,2.338,0.038,3.281,0.478c0.943,0.441,1.724,1.129,2.343,2.063
		c0.619,0.935,1.019,2.127,1.198,3.578c0.112,0.907,0.137,1.754,0.074,2.537c-0.062,0.783-0.239,1.558-0.528,2.323
		c-0.29,0.765-0.697,1.548-1.222,2.347c-0.524,0.799-1.195,1.653-2.01,2.56c4.077-0.051,6.367,1.949,6.868,6.001
		c0.18,1.452,0.077,2.928-0.308,4.428c-0.385,1.501-1.002,2.938-1.853,4.311c-0.851,1.374-1.901,2.636-3.151,3.786
		s-2.663,2.107-4.239,2.871c-1.526,0.739-2.977,1.178-4.352,1.315s-2.607-0.011-3.694-0.446c-1.088-0.435-1.984-1.138-2.688-2.112
		c-0.704-0.973-1.147-2.201-1.33-3.683C71.461,69.546,72.961,65.71,76.476,62.181z M79.269,69.002
		c0.071,0.575,0.226,1.077,0.465,1.506c0.238,0.43,0.531,0.761,0.878,0.993c0.347,0.233,0.741,0.362,1.182,0.389
		c0.636,0.039,1.308-0.19,2.018-0.688c0.029-0.02,0.058-0.043,0.085-0.067c0.621-0.547,1.12-1.196,1.499-1.951
		c0.266-0.529,0.456-1.086,0.569-1.67c0.113-0.583,0.135-1.163,0.064-1.738c-0.142-1.149-0.595-1.963-1.356-2.444
		c-0.762-0.48-1.606-0.496-2.531-0.048c-0.951,0.461-1.702,1.249-2.253,2.365C79.336,66.765,79.13,67.883,79.269,69.002z
		 M78.892,55.986c0.692,0.451,1.475,0.463,2.352,0.039c0.45-0.218,0.85-0.524,1.199-0.917s0.639-0.83,0.872-1.312
		c0.232-0.481,0.401-0.988,0.508-1.52s0.13-1.041,0.07-1.524c-0.127-1.028-0.537-1.767-1.229-2.218
		c-0.692-0.45-1.476-0.463-2.351-0.039c-1.283,0.622-2.172,1.878-2.674,3.77C77.498,54.112,77.916,55.351,78.892,55.986z"/>
	<g>
		<path fill="#FFFFFF" d="M54.86,29.261c3.658,0.442,6.728-0.155,9.208-1.79c1.017-0.671,1.723-1.365,2.118-2.085
			c0.394-0.719,0.517-1.434,0.366-2.146c-0.15-0.711-0.593-1.398-1.33-2.061c-0.736-0.663-1.738-1.267-3.003-1.811
			c-1.265-0.544-2.584-0.938-3.957-1.182c-1.372-0.244-2.727-0.33-4.065-0.259c-1.337,0.072-2.625,0.286-3.863,0.642
			c-1.238,0.357-2.366,0.87-3.383,1.541c-0.636,0.419-1.137,0.822-1.501,1.208c-0.366,0.386-0.593,0.784-0.685,1.195
			c-0.091,0.411-0.057,0.848,0.105,1.309c0.161,0.462,0.461,0.972,0.899,1.529c-4.69-0.632-8.457-0.012-11.297,1.86
			c-1.018,0.671-1.723,1.395-2.114,2.173c-0.392,0.778-0.478,1.561-0.26,2.347c0.219,0.787,0.73,1.55,1.536,2.288
			c0.806,0.738,1.907,1.409,3.305,2.01c1.354,0.582,2.789,1.009,4.305,1.28c1.515,0.271,3.024,0.383,4.525,0.336
			c1.502-0.047,2.932-0.251,4.289-0.615c1.357-0.363,2.555-0.886,3.594-1.571C56.557,33.546,56.96,31.48,54.86,29.261z
			 M47.823,32.122c-0.403,0.265-0.862,0.484-1.378,0.654c-0.516,0.171-1.039,0.286-1.571,0.346s-1.06,0.064-1.585,0.011
			s-0.998-0.17-1.421-0.351c-0.4-0.172-0.703-0.389-0.91-0.651s-0.317-0.54-0.33-0.834s0.078-0.59,0.273-0.887
			s0.493-0.579,0.896-0.844c0.805-0.531,1.784-0.855,2.934-0.972c1.15-0.117,2.136,0.001,2.957,0.354
			c0.844,0.363,1.273,0.854,1.289,1.472C48.992,31.037,48.607,31.605,47.823,32.122z M58.211,25.021
			c-0.742,0.489-1.639,0.79-2.691,0.903c-1.053,0.113-1.966,0.003-2.744-0.331c-0.4-0.172-0.692-0.378-0.876-0.619
			c-0.185-0.241-0.277-0.494-0.278-0.76c-0.001-0.266,0.086-0.534,0.26-0.806s0.43-0.519,0.769-0.743
			c0.72-0.475,1.607-0.769,2.66-0.882c1.052-0.113,1.967-0.003,2.744,0.331c0.778,0.334,1.177,0.784,1.202,1.348
			C59.28,24.026,58.931,24.546,58.211,25.021z"/>
	</g>
</g>
</svg>
